<svg xmlns="http://www.w3.org/2000/svg" xmlns:xlink="http://www.w3.org/1999/xlink" width="500" zoomAndPan="magnify" viewBox="0 0 375 374.999991" height="500" preserveAspectRatio="xMidYMid meet" version="1.0"><defs><g/><clipPath id="09c1b8cb5c"><path d="M 61 70 L 114.75 70 L 114.75 302 L 61 302 Z M 61 70 " clip-rule="nonzero"/></clipPath></defs><path fill="#000000" d="M 39.851562 68 C 108.460938 159.730469 23.015625 194.582031 60.742188 306.980469 C 0.03125 195.332031 88.222656 171.1875 39.851562 68 Z M 39.851562 68 " fill-opacity="1" fill-rule="nonzero"/><g clip-path="url(#09c1b8cb5c)"><path fill="#70a9a1" d="M 84.066406 301.460938 C 79.679688 301.460938 76.113281 297.894531 76.113281 293.511719 C 76.113281 289.125 79.679688 285.558594 84.066406 285.558594 C 88.449219 285.558594 92.015625 289.125 92.015625 293.511719 C 92.015625 297.894531 88.449219 301.460938 84.066406 301.460938 Z M 81.136719 262.78125 C 81.136719 258.398438 77.570312 254.828125 73.1875 254.828125 C 68.804688 254.828125 65.238281 258.398438 65.238281 262.78125 C 65.238281 267.164062 68.804688 270.730469 73.1875 270.730469 C 77.574219 270.730469 81.136719 267.164062 81.136719 262.78125 Z M 77.191406 232.050781 C 77.191406 227.667969 73.625 224.101562 69.242188 224.101562 C 64.859375 224.101562 61.292969 227.667969 61.292969 232.050781 C 61.292969 236.433594 64.859375 240.003906 69.242188 240.003906 C 73.625 240.003906 77.191406 236.433594 77.191406 232.050781 Z M 82.746094 201.320312 C 82.746094 196.9375 79.175781 193.371094 74.792969 193.371094 C 70.410156 193.371094 66.84375 196.9375 66.84375 201.320312 C 66.84375 205.703125 70.410156 209.269531 74.792969 209.269531 C 79.175781 209.269531 82.746094 205.703125 82.746094 201.320312 Z M 91.613281 170.589844 C 91.613281 166.207031 88.042969 162.640625 83.660156 162.640625 C 79.277344 162.640625 75.710938 166.207031 75.710938 170.589844 C 75.710938 174.976562 79.277344 178.542969 83.660156 178.542969 C 88.042969 178.542969 91.613281 174.976562 91.613281 170.589844 Z M 99.855469 139.863281 C 99.855469 135.476562 96.289062 131.910156 91.90625 131.910156 C 87.523438 131.910156 83.953125 135.476562 83.953125 139.863281 C 83.953125 144.246094 87.523438 147.8125 91.90625 147.8125 C 96.289062 147.8125 99.855469 144.246094 99.855469 139.863281 Z M 91.613281 109.132812 C 91.613281 104.75 88.042969 101.183594 83.660156 101.183594 C 79.277344 101.183594 75.710938 104.75 75.710938 109.132812 C 75.710938 113.515625 79.277344 117.085938 83.660156 117.085938 C 88.042969 117.085938 91.613281 113.515625 91.613281 109.132812 Z M 82.746094 78.402344 C 82.746094 74.019531 79.175781 70.449219 74.792969 70.449219 C 70.410156 70.449219 66.84375 74.019531 66.84375 78.402344 C 66.84375 82.785156 70.410156 86.351562 74.792969 86.351562 C 79.175781 86.351562 82.746094 82.785156 82.746094 78.402344 Z M 107.179688 293.511719 C 107.179688 291.523438 105.566406 289.910156 103.582031 289.910156 C 101.597656 289.910156 99.980469 291.523438 99.980469 293.511719 C 99.980469 295.496094 101.597656 297.109375 103.582031 297.109375 C 105.566406 297.109375 107.179688 295.496094 107.179688 293.511719 Z M 96.304688 262.78125 C 96.304688 260.792969 94.6875 259.179688 92.703125 259.179688 C 90.714844 259.179688 89.101562 260.796875 89.101562 262.78125 C 89.101562 264.765625 90.71875 266.382812 92.703125 266.382812 C 94.6875 266.382812 96.304688 264.765625 96.304688 262.78125 Z M 92.359375 232.050781 C 92.359375 230.066406 90.742188 228.449219 88.757812 228.449219 C 86.769531 228.449219 85.15625 230.066406 85.15625 232.050781 C 85.15625 234.039062 86.773438 235.652344 88.757812 235.652344 C 90.742188 235.652344 92.359375 234.035156 92.359375 232.050781 Z M 97.90625 201.320312 C 97.90625 199.332031 96.292969 197.71875 94.308594 197.71875 C 92.320312 197.71875 90.707031 199.335938 90.707031 201.320312 C 90.707031 203.308594 92.320312 204.921875 94.308594 204.921875 C 96.292969 204.921875 97.90625 203.308594 97.90625 201.320312 Z M 106.777344 170.589844 C 106.777344 168.605469 105.160156 166.992188 103.175781 166.992188 C 101.191406 166.992188 99.574219 168.605469 99.574219 170.589844 C 99.574219 172.578125 101.191406 174.191406 103.175781 174.191406 C 105.160156 174.191406 106.777344 172.578125 106.777344 170.589844 Z M 115.023438 139.863281 C 115.023438 137.875 113.40625 136.261719 111.421875 136.261719 C 109.433594 136.261719 107.820312 137.878906 107.820312 139.863281 C 107.820312 141.847656 109.4375 143.464844 111.421875 143.464844 C 113.40625 143.464844 115.023438 141.847656 115.023438 139.863281 Z M 106.777344 109.132812 C 106.777344 107.148438 105.160156 105.53125 103.175781 105.53125 C 101.191406 105.53125 99.574219 107.148438 99.574219 109.132812 C 99.574219 111.121094 101.191406 112.734375 103.175781 112.734375 C 105.160156 112.734375 106.777344 111.117188 106.777344 109.132812 Z M 97.90625 78.402344 C 97.90625 76.414062 96.292969 74.800781 94.308594 74.800781 C 92.320312 74.800781 90.707031 76.417969 90.707031 78.402344 C 90.707031 80.386719 92.320312 82.003906 94.308594 82.003906 C 96.292969 82.003906 97.90625 80.386719 97.90625 78.402344 Z M 97.90625 78.402344 " fill-opacity="1" fill-rule="nonzero"/></g><g fill="#000000" fill-opacity="1"><g transform="translate(120.130588, 167.40794)"><g><path d="M 5.90625 -46.40625 L 24.484375 -46.40625 C 27.703125 -46.40625 30.566406 -45.894531 33.078125 -44.875 C 35.585938 -43.863281 37.566406 -42.328125 39.015625 -40.265625 C 40.460938 -38.203125 41.1875 -35.632812 41.1875 -32.5625 C 41.1875 -29.21875 40.359375 -26.347656 38.703125 -23.953125 C 37.054688 -21.554688 34.84375 -19.722656 32.0625 -18.453125 C 29.28125 -17.179688 26.171875 -16.546875 22.734375 -16.546875 L 16.21875 -16.546875 L 16.21875 0 L 5.90625 0 Z M 16.21875 -23.609375 L 22.59375 -23.609375 C 25.03125 -23.609375 26.992188 -24.34375 28.484375 -25.8125 C 29.984375 -27.28125 30.734375 -29.210938 30.734375 -31.609375 C 30.734375 -34.097656 29.972656 -36.007812 28.453125 -37.34375 C 26.941406 -38.675781 24.898438 -39.34375 22.328125 -39.34375 L 16.21875 -39.34375 Z M 16.21875 -23.609375 "/></g></g></g><g fill="#000000" fill-opacity="1"><g transform="translate(163.05473, 167.40794)"><g><path d="M 13.84375 -26.453125 C 15.289062 -28.398438 16.859375 -29.914062 18.546875 -31 C 20.242188 -32.082031 21.882812 -32.625 23.46875 -32.625 C 24.195312 -32.625 24.890625 -32.601562 25.546875 -32.5625 C 26.203125 -32.519531 26.820312 -32.40625 27.40625 -32.21875 L 27.40625 -23.75 C 26.28125 -23.96875 25.320312 -24.097656 24.53125 -24.140625 C 23.738281 -24.191406 22.976562 -24.21875 22.25 -24.21875 C 20.9375 -24.21875 19.546875 -23.796875 18.078125 -22.953125 C 16.609375 -22.117188 15.332031 -21.117188 14.25 -19.953125 L 14.25 0 L 4.484375 0 L 4.484375 -20.6875 C 4.484375 -21.5 4.46875 -22.59375 4.4375 -23.96875 C 4.414062 -25.351562 4.367188 -26.78125 4.296875 -28.25 C 4.234375 -29.726562 4.132812 -31.007812 4 -32.09375 L 13.15625 -32.09375 C 13.34375 -31.09375 13.476562 -30.128906 13.5625 -29.203125 C 13.65625 -28.273438 13.75 -27.359375 13.84375 -26.453125 Z M 13.84375 -26.453125 "/></g></g></g><g fill="#000000" fill-opacity="1"><g transform="translate(190.653671, 167.40794)"><g><path d="M 30.1875 -9.296875 C 30.1875 -8.117188 30.398438 -7.257812 30.828125 -6.71875 C 31.265625 -6.175781 32.023438 -5.90625 33.109375 -5.90625 C 33.554688 -5.90625 33.972656 -5.9375 34.359375 -6 C 34.742188 -6.070312 35.164062 -6.148438 35.625 -6.234375 L 35.625 -0.875 C 34.53125 -0.425781 33.347656 -0.0546875 32.078125 0.234375 C 30.816406 0.523438 29.53125 0.671875 28.21875 0.671875 C 26.6875 0.671875 25.285156 0.289062 24.015625 -0.46875 C 22.742188 -1.238281 21.90625 -2.328125 21.5 -3.734375 C 20.1875 -2.421875 18.738281 -1.367188 17.15625 -0.578125 C 15.582031 0.210938 13.820312 0.609375 11.875 0.609375 C 8.570312 0.609375 6.117188 -0.28125 4.515625 -2.0625 C 2.910156 -3.851562 2.109375 -6.0625 2.109375 -8.6875 C 2.109375 -10.269531 2.351562 -11.679688 2.84375 -12.921875 C 3.34375 -14.171875 4.023438 -15.085938 4.890625 -15.671875 C 5.609375 -16.171875 6.78125 -16.722656 8.40625 -17.328125 C 10.039062 -17.941406 11.960938 -18.578125 14.171875 -19.234375 C 16.390625 -19.890625 18.742188 -20.488281 21.234375 -21.03125 C 21.234375 -22.75 20.78125 -24.09375 19.875 -25.0625 C 18.96875 -26.039062 17.519531 -26.53125 15.53125 -26.53125 C 13.863281 -26.53125 12.113281 -26.210938 10.28125 -25.578125 C 8.445312 -24.941406 6.421875 -23.992188 4.203125 -22.734375 L 4.203125 -29.234375 C 6.378906 -30.460938 8.609375 -31.40625 10.890625 -32.0625 C 13.171875 -32.71875 15.441406 -33.046875 17.703125 -33.046875 C 20.015625 -33.046875 22.109375 -32.671875 23.984375 -31.921875 C 25.859375 -31.171875 27.359375 -30.003906 28.484375 -28.421875 C 29.617188 -26.835938 30.1875 -24.78125 30.1875 -22.25 Z M 11.1875 -9.84375 C 11.1875 -8.4375 11.570312 -7.378906 12.34375 -6.671875 C 13.113281 -5.972656 14.066406 -5.625 15.203125 -5.625 C 16.285156 -5.625 17.359375 -5.894531 18.421875 -6.4375 C 19.484375 -6.988281 20.421875 -7.757812 21.234375 -8.75 L 21.234375 -15.734375 C 19.828125 -15.515625 18.457031 -15.210938 17.125 -14.828125 C 15.789062 -14.441406 14.660156 -14.078125 13.734375 -13.734375 C 12.804688 -13.398438 12.253906 -13.140625 12.078125 -12.953125 C 11.484375 -12.460938 11.1875 -11.425781 11.1875 -9.84375 Z M 11.1875 -9.84375 "/></g></g></g><g fill="#000000" fill-opacity="1"><g transform="translate(225.847424, 167.40794)"><g><path d="M 37.3125 0 L 25.78125 0 L 17.375 -13.03125 L 14.046875 -13.03125 L 14.046875 0 L 4.484375 0 L 4.484375 -50.140625 L 14.046875 -50.140625 L 14.046875 -19.75 L 16.75 -19.75 L 26.1875 -32.09375 L 36.703125 -32.09375 L 25.109375 -17.78125 Z M 37.3125 0 "/></g></g></g><g fill="#000000" fill-opacity="1"><g transform="translate(263.482341, 167.40794)"><g><path d="M 15 -11.46875 C 15 -9.519531 15.492188 -8.113281 16.484375 -7.25 C 17.484375 -6.394531 19.15625 -5.96875 21.5 -5.96875 C 22.226562 -5.96875 23 -6.007812 23.8125 -6.09375 C 24.625 -6.1875 25.4375 -6.300781 26.25 -6.4375 L 26.25 -0.671875 C 25.070312 -0.316406 23.757812 -0.015625 22.3125 0.234375 C 20.875 0.484375 19.363281 0.609375 17.78125 0.609375 C 15.46875 0.609375 13.375 0.28125 11.5 -0.375 C 9.625 -1.03125 8.128906 -2.082031 7.015625 -3.53125 C 5.910156 -4.976562 5.359375 -6.851562 5.359375 -9.15625 L 5.359375 -25.78125 L 0.8125 -25.78125 L 0.8125 -32.09375 L 5.625 -32.09375 L 7.734375 -39.953125 L 15 -39.953125 L 15 -32.09375 L 26.046875 -32.09375 L 26.046875 -25.78125 L 15 -25.78125 Z M 15 -11.46875 "/></g></g></g><g fill="#000000" fill-opacity="1"><g transform="translate(290.064117, 167.40794)"><g><path d="M 15.0625 -44.296875 C 15.0625 -42.765625 14.539062 -41.46875 13.5 -40.40625 C 12.457031 -39.34375 11.144531 -38.8125 9.5625 -38.8125 C 8.03125 -38.8125 6.71875 -39.34375 5.625 -40.40625 C 4.539062 -41.46875 4 -42.765625 4 -44.296875 C 4 -45.835938 4.550781 -47.140625 5.65625 -48.203125 C 6.769531 -49.265625 8.070312 -49.796875 9.5625 -49.796875 C 11.0625 -49.796875 12.351562 -49.265625 13.4375 -48.203125 C 14.519531 -47.140625 15.0625 -45.835938 15.0625 -44.296875 Z M 14.3125 0 L 4.6875 0 L 4.6875 -32.09375 L 14.3125 -32.09375 Z M 14.3125 0 "/></g></g></g><g fill="#000000" fill-opacity="1"><g transform="translate(308.983291, 167.40794)"><g><path d="M 15.46875 -44.296875 C 15.46875 -42.765625 14.9375 -41.46875 13.875 -40.40625 C 12.8125 -39.34375 11.507812 -38.8125 9.96875 -38.8125 C 8.4375 -38.8125 7.125 -39.34375 6.03125 -40.40625 C 4.945312 -41.46875 4.40625 -42.765625 4.40625 -44.296875 C 4.40625 -45.796875 4.945312 -47.085938 6.03125 -48.171875 C 7.125 -49.253906 8.414062 -49.796875 9.90625 -49.796875 C 11.445312 -49.796875 12.757812 -49.265625 13.84375 -48.203125 C 14.925781 -47.140625 15.46875 -45.835938 15.46875 -44.296875 Z M 14.71875 -0.203125 C 14.71875 2.828125 14.21875 5.53125 13.21875 7.90625 C 12.226562 10.28125 10.554688 12.144531 8.203125 13.5 C 5.859375 14.851562 2.625 15.53125 -1.5 15.53125 C -2.625 15.53125 -3.707031 15.507812 -4.75 15.46875 C -5.789062 15.425781 -6.765625 15.3125 -7.671875 15.125 L -7.671875 7.796875 C -6.265625 8.117188 -5.039062 8.332031 -4 8.4375 C -2.957031 8.550781 -1.941406 8.609375 -0.953125 8.609375 C 0.765625 8.609375 2.050781 8.28125 2.90625 7.625 C 3.769531 6.976562 4.347656 6.066406 4.640625 4.890625 C 4.941406 3.710938 5.09375 2.398438 5.09375 0.953125 L 5.09375 -32.09375 L 14.71875 -32.09375 Z M 14.71875 -0.203125 "/></g></g></g><g fill="#000000" fill-opacity="1"><g transform="translate(328.377155, 167.40794)"><g><path d="M 37.3125 0 L 25.78125 0 L 17.375 -13.03125 L 14.046875 -13.03125 L 14.046875 0 L 4.484375 0 L 4.484375 -50.140625 L 14.046875 -50.140625 L 14.046875 -19.75 L 16.75 -19.75 L 26.1875 -32.09375 L 36.703125 -32.09375 L 25.109375 -17.78125 Z M 37.3125 0 "/></g></g></g><g fill="#000000" fill-opacity="1"><g transform="translate(366.014013, 167.40794)"><g/></g></g><g fill="#000000" fill-opacity="1"><g transform="translate(120.130588, 238.846336)"><g><path d="M 1.15625 -46.40625 L 42.328125 -46.40625 L 42.328125 -38.40625 L 26.859375 -38.40625 L 26.859375 0 L 16.625 0 L 16.625 -38.40625 L 1.15625 -38.40625 Z M 1.15625 -46.40625 "/></g></g></g><g fill="#000000" fill-opacity="1"><g transform="translate(163.597242, 238.846336)"><g><path d="M 15.0625 -44.296875 C 15.0625 -42.765625 14.539062 -41.46875 13.5 -40.40625 C 12.457031 -39.34375 11.144531 -38.8125 9.5625 -38.8125 C 8.03125 -38.8125 6.71875 -39.34375 5.625 -40.40625 C 4.539062 -41.46875 4 -42.765625 4 -44.296875 C 4 -45.835938 4.550781 -47.140625 5.65625 -48.203125 C 6.769531 -49.265625 8.070312 -49.796875 9.5625 -49.796875 C 11.0625 -49.796875 12.351562 -49.265625 13.4375 -48.203125 C 14.519531 -47.140625 15.0625 -45.835938 15.0625 -44.296875 Z M 14.3125 0 L 4.6875 0 L 4.6875 -32.09375 L 14.3125 -32.09375 Z M 14.3125 0 "/></g></g></g><g fill="#000000" fill-opacity="1"><g transform="translate(182.516417, 238.846336)"><g><path d="M 19.203125 -33.171875 C 23.546875 -33.171875 26.945312 -31.878906 29.40625 -29.296875 C 31.875 -26.722656 33.109375 -22.972656 33.109375 -18.046875 L 33.109375 -15.46875 L 11.734375 -15.46875 C 11.960938 -12.394531 12.890625 -10.050781 14.515625 -8.4375 C 16.140625 -6.832031 18.398438 -6.03125 21.296875 -6.03125 C 23.285156 -6.03125 25.285156 -6.269531 27.296875 -6.75 C 29.316406 -7.226562 31.1875 -7.828125 32.90625 -8.546875 L 32.90625 -2.4375 C 31.226562 -1.488281 29.179688 -0.707031 26.765625 -0.09375 C 24.347656 0.507812 21.847656 0.8125 19.265625 0.8125 C 15.960938 0.8125 13.007812 0.15625 10.40625 -1.15625 C 7.8125 -2.46875 5.765625 -4.363281 4.265625 -6.84375 C 2.773438 -9.332031 2.03125 -12.320312 2.03125 -15.8125 C 2.03125 -19.0625 2.726562 -22 4.125 -24.625 C 5.53125 -27.25 7.519531 -29.328125 10.09375 -30.859375 C 12.675781 -32.398438 15.710938 -33.171875 19.203125 -33.171875 Z M 24.28125 -20.828125 C 24.0625 -25.304688 22.117188 -27.546875 18.453125 -27.546875 C 16.597656 -27.546875 15.070312 -26.921875 13.875 -25.671875 C 12.675781 -24.429688 11.941406 -22.816406 11.671875 -20.828125 Z M 24.28125 -20.828125 "/></g></g></g><g fill="#000000" fill-opacity="1"><g transform="translate(217.777958, 238.846336)"><g><path d="M 14.25 0 L 4.6875 0 L 4.6875 -50.140625 L 14.25 -50.140625 Z M 14.25 0 "/></g></g></g><g fill="#000000" fill-opacity="1"><g transform="translate(236.697133, 238.846336)"><g><path d="M 36.96875 -16.6875 C 36.96875 -13.25 36.207031 -10.21875 34.6875 -7.59375 C 33.175781 -4.96875 31.085938 -2.910156 28.421875 -1.421875 C 25.753906 0.0664062 22.722656 0.8125 19.328125 0.8125 C 15.941406 0.8125 12.945312 0.132812 10.34375 -1.21875 C 7.738281 -2.570312 5.710938 -4.503906 4.265625 -7.015625 C 2.828125 -9.523438 2.109375 -12.523438 2.109375 -16.015625 C 2.109375 -19.359375 2.882812 -22.316406 4.4375 -24.890625 C 6 -27.472656 8.125 -29.507812 10.8125 -31 C 13.507812 -32.5 16.53125 -33.25 19.875 -33.25 C 23.269531 -33.25 26.242188 -32.601562 28.796875 -31.3125 C 31.347656 -30.019531 33.347656 -28.140625 34.796875 -25.671875 C 36.242188 -23.210938 36.96875 -20.21875 36.96875 -16.6875 Z M 12.21875 -16.484375 C 12.21875 -13.085938 12.789062 -10.335938 13.9375 -8.234375 C 15.09375 -6.140625 16.957031 -5.09375 19.53125 -5.09375 C 22.15625 -5.09375 24.046875 -6.109375 25.203125 -8.140625 C 26.359375 -10.171875 26.9375 -12.703125 26.9375 -15.734375 C 26.9375 -19.085938 26.425781 -21.859375 25.40625 -24.046875 C 24.382812 -26.242188 22.539062 -27.34375 19.875 -27.34375 C 17.25 -27.34375 15.316406 -26.320312 14.078125 -24.28125 C 12.835938 -22.25 12.21875 -19.648438 12.21875 -16.484375 Z M 12.21875 -16.484375 "/></g></g></g></svg>